<?xml version="1.0" encoding="UTF-8" standalone="no"?>
<svg width="212px" height="78px" viewBox="0 0 212 78" version="1.1" xmlns="http://www.w3.org/2000/svg" xmlns:xlink="http://www.w3.org/1999/xlink">
    <!-- Generator: Sketch 40.1 (33804) - http://www.bohemiancoding.com/sketch -->
    <title>Слой_x0020_1</title>
    <desc>Created with Sketch.</desc>
    <defs></defs>
    <g id="Page-1" stroke="none" stroke-width="1" fill="none" fill-rule="evenodd">
        <g id="Слой_x0020_1">
            <g id="_80277792">
                <g id="Group">
                    <polygon id="Shape" fill="#7BA52D" points="7.77099116 6.78811553 33.702178 0 32.8949653 76.9236111 16.4077494 76.9236111"></polygon>
                    <polygon id="Shape" fill="#394A75" points="12.8233902 10.3641098 30.3562184 5.3911774 30.3687658 9.17629419 30.5527936 74.280303 18.9715909 74.409959"></polygon>
                    <polygon id="Shape" fill="#FEFEFE" points="30.5402462 70.2651515 26.2239583 70.2776989 21.7780145 11.4013573 30.3687658 9.17629419"></polygon>
                    <polygon id="Shape" fill="#394A75" points="47.7217487 9.33104482 42.3138415 70.9092487 32.8949653 76.9236111 33.702178 0"></polygon>
                    <polygon id="Shape" fill="#FEFEFE" points="37.516572 10.1926294 44.3214173 10.104798 39.6998106 70.0309343 36.1238163 70.1187658"></polygon>
                    <polygon id="Shape" fill="#394A75" points="47.9266888 20.1552241 55.317077 24.3125789 49.2065183 66.1872633 43.2088857 70.2944287"></polygon>
                    <polygon id="Shape" fill="#FEFEFE" points="49.8213384 25.0988794 52.8703441 27.6292614 47.6171875 64.965988 45.6974432 64.965988"></polygon>
                    <path d="M8.72458965,20.209596 L0,25.6216856 L7.50331439,69.4077494 L15.3495896,76.0411143 L8.72458965,20.209596 L8.72458965,20.209596 Z" id="Shape" fill="#394A75"></path>
                    <polygon id="Shape" fill="#FEFEFE" points="3.40033144 28.9258207 6.75883838 26.7844066 12.6226326 69.7925347 9.1177399 67.3165246"></polygon>
                </g>
                <g id="Group" transform="translate(68.332860, 9.690735)">
                    <path d="M0,1.07070707 L10.8367266,1.07070707 C10.970565,56.1995739 10.9454703,8.31052715 10.8367266,53.8741319 L0,53.8741319 L0,1.07070707 L0,1.07070707 Z M56.6680082,32.0250158 C56.6680082,37.3325442 56.5759943,41.0800189 56.3710543,43.2841698 C56.1786616,45.4966856 55.5638415,47.5126263 54.5307765,49.3361742 C53.4977115,51.1597222 52.0924085,52.5650253 50.3315972,53.539536 C48.5666035,54.5224116 46.5172033,55.0117582 44.1750316,55.0117582 C41.945786,55.0117582 39.95494,54.5433239 38.1857639,53.6190025 C36.4124053,52.6946812 34.98619,51.3144729 33.915483,49.4700126 C32.836411,47.6213699 32.1964962,45.6096117 31.9873737,43.4389205 C31.7824337,41.2598643 31.6778725,37.4538352 31.6778725,32.0250158 L31.6778725,22.9909249 C31.6778725,17.6833965 31.7740688,13.9317393 31.9748264,11.7275884 C32.1714015,9.5150726 32.7820391,7.49913194 33.8192866,5.67558396 C34.8523516,3.85203598 36.2576547,2.4509154 38.0184659,1.47222222 C39.7834596,0.489346591 41.8328598,0 44.1750316,0 C46.4000947,0 48.3909407,0.468434343 50.1642992,1.39275568 C51.9334754,2.31707702 53.3638731,3.69728535 54.4345802,5.54174558 C55.5136521,7.39038826 56.1535669,9.40214646 56.3626894,11.5728378 C56.563447,13.7518939 56.6680082,17.557923 56.6680082,22.9909249 L56.6680082,32.0250158 L56.6680082,32.0250158 Z M45.8312816,14.6762153 C45.8312816,12.2294823 45.7267203,10.6610638 45.5175979,9.9709596 C45.3042929,9.29340278 44.8776831,8.94625947 44.225221,8.94625947 C43.6731376,8.94625947 43.2548927,9.22648359 42.9537563,9.78274937 C42.6651673,10.3264678 42.5187816,11.9618056 42.5187816,14.6762153 L42.5187816,39.3233902 C42.5187816,42.3807607 42.6149779,44.2754104 42.8073706,44.9864268 C42.9997633,45.7099905 43.4472854,46.0654987 44.1499369,46.0654987 C44.8651357,46.0654987 45.3293876,45.6556187 45.5343277,44.8274937 C45.7350852,44.0077336 45.8312816,42.0377999 45.8312816,38.9344223 L45.8312816,14.6762153 L45.8312816,14.6762153 Z M85.5729167,1.07070707 L85.5729167,53.8741319 L74.73619,53.8741319 L74.73619,31.7113321 L71.5784407,31.7113321 L71.5784407,53.8741319 L60.7375316,53.8741319 L60.7375316,1.07070707 L71.5784407,1.07070707 L71.5784407,19.9628314 L74.73619,19.9628314 L74.73619,1.07070707 L85.5729167,1.07070707 L85.5729167,1.07070707 Z M114.047033,53.8741319 L104.996212,53.8741319 L104.996212,29.8543245 L99.3666351,53.8741319 L89.9477588,53.8741319 L89.9477588,1.07070707 L98.9985795,1.07070707 L98.9985795,24.9023043 L105.046402,1.07070707 L114.047033,1.07070707 L114.047033,53.8741319 L114.047033,53.8741319 Z M143.66714,24.1034564 L132.830414,24.1034564 L132.830414,14.9313447 C132.830414,12.2629419 132.713305,10.6066919 132.487453,9.9375 C132.257418,9.28085543 131.751342,8.94625947 130.969223,8.94625947 C130.095092,8.94625947 129.530461,9.34777462 129.296244,10.1466225 C129.057844,10.9622001 128.936553,12.6979167 128.936553,15.3663194 L128.936553,39.8671086 C128.936553,42.439315 129.057844,44.1081124 129.296244,44.8985953 C129.530461,45.6765309 130.065814,46.0654987 130.889757,46.0654987 C131.688605,46.0654987 132.215593,45.6765309 132.462358,44.886048 C132.70494,44.1081124 132.830414,42.2594697 132.830414,39.3568497 L132.830414,32.7109375 L143.66714,32.7109375 L143.66714,34.7728851 C143.66714,40.2477115 143.361821,44.1290246 142.755366,46.4084596 C142.148911,48.7004419 140.79798,50.7038352 138.723485,52.4270044 C136.636443,54.1543561 134.072601,55.0117582 131.023595,55.0117582 C127.857481,55.0117582 125.24345,54.2881944 123.181503,52.8285196 C121.132102,51.3730271 119.764441,49.3570865 119.095249,46.7765152 C118.43024,44.1959438 118.099826,40.3229956 118.099826,35.1493056 L118.099826,19.7286143 C118.099826,15.9225852 118.204388,13.0743371 118.405145,11.1713226 C118.614268,9.26830808 119.220723,7.43221275 120.245423,5.67558396 C121.261758,3.91895518 122.675426,2.52619949 124.482244,1.51404672 C126.289062,0.501893939 128.363557,0 130.714094,0 C133.896938,0 136.527699,0.782118056 138.606376,2.35053662 C140.676689,3.90640783 142.035985,5.85124684 142.692629,8.18923611 C143.345092,10.5272254 143.66714,14.1534091 143.66714,19.084517 L143.66714,24.1034564 L143.66714,24.1034564 Z" id="Shape" fill="#394A75"></path>
                    <polygon id="Shape" stroke="#394A75" stroke-width="7.62" fill="#394A75" points="10.8994634 25.2787247 17.6624842 25.2787247 17.6624842 30.2181976 10.9203756 30.2642045"></polygon>
                    <g transform="translate(16.403567, 1.070707)" id="Shape">
                        <path d="M0,0 L10.8367266,0 C10.8701862,15.3955966 10.8994634,22.7567077 10.9120107,26.3619792 C10.9454703,35.6679293 10.9120107,19.9670139 10.8367266,52.8034249 L0,52.8034249 L0,0 L0,0 Z" fill="#394A75"></path>
                        <polygon fill="#FEFEFE" points="10.9956597 22.6061395 11.0082071 30.8706597 5.96835543 26.4456282"></polygon>
                    </g>
                </g>
                <path d="M70.9385259,69.5039457 C71.7415562,69.5039457 72.4107481,69.8301768 72.9377367,70.4868213 C73.4187184,71.0807292 73.6613005,71.7875631 73.6613005,72.6031408 C73.6613005,73.4229009 73.4061711,74.1380997 72.9000947,74.7529198 C72.3898359,75.3635574 71.7373737,75.6730587 70.9385259,75.6730587 C70.1354956,75.6730587 69.478851,75.3635574 68.9685922,74.7529198 C68.4625158,74.1380997 68.2073864,73.4229009 68.2073864,72.6031408 C68.2073864,71.7917456 68.4499684,71.0890941 68.9309501,70.4910038 C69.4579388,69.8343592 70.1271307,69.5039457 70.9385259,69.5039457 L70.9385259,69.5039457 Z M70.9343434,70.2484217 C70.3738952,70.2484217 69.897096,70.4784564 69.4955808,70.9385259 C69.0940657,71.4027778 68.8933081,71.963226 68.8933081,72.6198706 C68.8933081,73.042298 68.985322,73.4396307 69.1693497,73.8076862 C69.3533775,74.1715593 69.600142,74.4517835 69.9096433,74.652541 C70.2191446,74.8532986 70.5621054,74.9536774 70.9343434,74.9536774 C71.3065814,74.9536774 71.6495423,74.8532986 71.9590436,74.652541 C72.2685448,74.4517835 72.5153093,74.1715593 72.6993371,73.8076862 C72.8833649,73.4396307 72.9753788,73.042298 72.9753788,72.6198706 C72.9753788,71.963226 72.7704388,71.4027778 72.3689236,70.9385259 C71.9674085,70.4784564 71.4906092,70.2484217 70.9343434,70.2484217 L70.9343434,70.2484217 Z M74.8993056,69.6503314 L75.564315,69.6503314 L75.564315,72.1263415 L77.9985006,69.6503314 L78.9186395,69.6503314 L76.2795139,72.3312816 L79.127762,75.526673 L78.178346,75.526673 L75.7776199,72.8080808 L75.564315,73.0213857 L75.564315,75.526673 L74.8993056,75.526673 L74.8993056,69.6503314 L74.8993056,69.6503314 Z M82.3064236,69.5039457 C83.1094539,69.5039457 83.7786458,69.8301768 84.3098169,70.4868213 C84.7907986,71.0807292 85.0291982,71.7875631 85.0291982,72.6031408 C85.0291982,73.4229009 84.7782513,74.1380997 84.2679924,74.7529198 C83.7577336,75.3635574 83.1052715,75.6730587 82.3064236,75.6730587 C81.5033933,75.6730587 80.8467487,75.3635574 80.3406723,74.7529198 C79.8304135,74.1380997 79.5752841,73.4229009 79.5752841,72.6031408 C79.5752841,71.7917456 79.8178662,71.0890941 80.2988479,70.4910038 C80.8258365,69.8343592 81.4992109,69.5039457 82.3064236,69.5039457 L82.3064236,69.5039457 Z M82.3022412,70.2484217 C81.7459754,70.2484217 81.2649937,70.4784564 80.8634785,70.9385259 C80.4619634,71.4027778 80.2653883,71.963226 80.2653883,72.6198706 C80.2653883,73.042298 80.3574021,73.4396307 80.5372475,73.8076862 C80.7212753,74.1715593 80.9680398,74.4517835 81.277541,74.652541 C81.5870423,74.8532986 81.9300032,74.9536774 82.3022412,74.9536774 C82.6744792,74.9536774 83.01744,74.8532986 83.3269413,74.652541 C83.6364426,74.4517835 83.8873895,74.1715593 84.0672348,73.8076862 C84.2512626,73.4396307 84.3432765,73.042298 84.3432765,72.6198706 C84.3432765,71.963226 84.1425189,71.4027778 83.7368213,70.9385259 C83.3353062,70.4784564 82.8585069,70.2484217 82.3022412,70.2484217 L82.3022412,70.2484217 Z M89.9812184,72.6951547 L86.9363952,72.6951547 L86.9363952,75.526673 L86.2672033,75.526673 L86.2672033,69.6503314 L86.9363952,69.6503314 L86.9363952,71.9841383 L89.9812184,71.9841383 L89.9812184,69.6503314 L90.6504104,69.6503314 L90.6504104,75.526673 L89.9812184,75.526673 L89.9812184,72.6951547 L89.9812184,72.6951547 Z M95.8617424,72.6951547 L92.8127367,72.6951547 L92.8127367,75.526673 L92.1435448,75.526673 L92.1435448,69.6503314 L92.8127367,69.6503314 L92.8127367,71.9841383 L95.8617424,71.9841383 L95.8617424,69.6503314 L96.5267519,69.6503314 L96.5267519,75.526673 L95.8617424,75.526673 L95.8617424,72.6951547 L95.8617424,72.6951547 Z M98.6890783,71.9757734 L99.3289931,71.9757734 C99.8350694,71.9757734 100.236585,72.0175979 100.525174,72.1096117 C100.80958,72.1974432 101.060527,72.3982008 101.26965,72.707702 C101.47459,73.0130208 101.583333,73.368529 101.583333,73.7700442 C101.583333,74.2510259 101.428583,74.6650884 101.127446,75.0122317 C100.830492,75.3551926 100.374605,75.526673 99.7597854,75.526673 L98.0240688,75.526673 L98.0240688,69.6503314 L98.6890783,69.6503314 L98.6890783,71.9757734 L98.6890783,71.9757734 Z M98.7099905,72.67006 L98.7099905,74.8867582 L99.4879261,74.8867582 C100.3997,74.8867582 100.855587,74.5270676 100.855587,73.8076862 C100.855587,73.6027462 100.805398,73.4019886 100.705019,73.2054135 C100.608823,73.0088384 100.466619,72.8708176 100.278409,72.791351 C100.090199,72.7118845 99.7597854,72.67006 99.2829861,72.67006 L98.7099905,72.67006 L98.7099905,72.67006 Z M102.51602,69.6503314 L103.185211,69.6503314 L103.185211,75.526673 L102.51602,75.526673 L102.51602,69.6503314 L102.51602,69.6503314 Z M109.023911,73.5776515 L109.588542,73.9164299 C109.400331,74.3221275 109.187027,74.652541 108.944444,74.903488 C108.69768,75.154435 108.425821,75.3468277 108.120502,75.4764836 C107.815183,75.6061395 107.472222,75.6730587 107.087437,75.6730587 C106.230035,75.6730587 105.565025,75.359375 105.084044,74.7320076 C104.603062,74.1046402 104.36048,73.3936237 104.36048,72.6031408 C104.36048,71.8628472 104.56542,71.1978378 104.9753,70.6164773 C105.489741,69.8761837 106.184028,69.5039457 107.049795,69.5039457 C107.940657,69.5039457 108.655855,69.8845486 109.187027,70.641572 C109.567629,71.1769255 109.760022,71.8461174 109.764205,72.6491477 L105.050584,72.6491477 C105.063131,73.330887 105.255524,73.8871528 105.631944,74.3221275 C106.008365,74.7571023 106.472617,74.9745896 107.0247,74.9745896 C107.292377,74.9745896 107.551689,74.9244003 107.806818,74.819839 C108.057765,74.7152778 108.27107,74.5772569 108.450915,74.4057765 C108.626578,74.2342961 108.818971,73.9624369 109.023911,73.5776515 L109.023911,73.5776515 Z M109.028093,71.9966856 C108.940262,71.590988 108.806424,71.2689394 108.634943,71.0305398 C108.463463,70.7879577 108.233428,70.595565 107.953204,70.4449968 C107.668797,70.2986111 107.367661,70.223327 107.05816,70.223327 C106.543718,70.223327 106.100379,70.4073548 105.728141,70.7795928 C105.456282,71.051452 105.255524,71.4571496 105.117503,71.9966856 L109.028093,71.9966856 L109.028093,71.9966856 Z M114.389994,69.6503314 L114.389994,74.0042614 L118.229482,69.6503314 L118.283854,69.6503314 L118.283854,75.526673 L117.614662,75.526673 L117.614662,71.2062027 L113.804451,75.526673 L113.724984,75.526673 L113.724984,69.6503314 L114.389994,69.6503314 L114.389994,69.6503314 Z M122.54577,74.8867582 L124.561711,69.6503314 L124.913037,69.6503314 L126.91643,74.8867582 L127.539615,74.8867582 L127.539615,76.2795139 L126.891335,76.2795139 L126.891335,75.526673 L122.57923,75.526673 L122.57923,76.3129735 L121.910038,76.3129735 L121.910038,74.8867582 L122.54577,74.8867582 L122.54577,74.8867582 Z M124.724826,70.8297822 L123.198232,74.8867582 L126.188684,74.8867582 L124.724826,70.8297822 L124.724826,70.8297822 Z M129.961253,75.526673 L128.443024,75.526673 L128.443024,69.6503314 L129.940341,69.6503314 C130.509154,69.6503314 130.923217,69.7967172 131.174164,70.0894886 C131.42511,70.3864426 131.550584,70.7294034 131.550584,71.1267361 C131.550584,71.7206439 131.316367,72.1221591 130.847932,72.335464 C131.525489,72.6073232 131.864268,73.1301294 131.864268,73.9038826 C131.864268,74.987137 131.232718,75.526673 129.961253,75.526673 L129.961253,75.526673 Z M129.112216,70.3027936 L129.112216,72.130524 L129.551373,72.130524 C129.952888,72.130524 130.2122,72.1096117 130.333491,72.0761521 C130.458965,72.0385101 130.571891,71.9506787 130.680634,71.8084754 C130.789378,71.6662721 130.84375,71.4822443 130.84375,71.2480271 C130.84375,71.0012626 130.785196,70.8005051 130.67227,70.6373895 C130.559343,70.4700915 130.442235,70.3738952 130.316761,70.3446181 C130.19547,70.3153409 129.940341,70.3027936 129.551373,70.3027936 L129.112216,70.3027936 L129.112216,70.3027936 Z M129.112216,72.8248106 L129.112216,74.8867582 L129.83578,74.8867582 C130.174558,74.8867582 130.421323,74.8616635 130.567708,74.8114741 C130.709912,74.7654672 130.839568,74.6567235 130.939946,74.4977904 C131.044508,74.3346749 131.098879,74.1297348 131.098879,73.8787879 C131.098879,73.5609217 131.006866,73.3057923 130.82702,73.1133996 C130.647175,72.9210069 130.408775,72.8248106 130.116004,72.8248106 L129.112216,72.8248106 L129.112216,72.8248106 Z M137.447838,73.5776515 L138.016651,73.9164299 C137.828441,74.3221275 137.615136,74.652541 137.368371,74.903488 C137.125789,75.154435 136.85393,75.3468277 136.548611,75.4764836 C136.23911,75.6061395 135.896149,75.6730587 135.511364,75.6730587 C134.658144,75.6730587 133.988952,75.359375 133.50797,74.7320076 C133.026989,74.1046402 132.788589,73.3936237 132.788589,72.6031408 C132.788589,71.8628472 132.993529,71.1978378 133.399227,70.6164773 C133.913668,69.8761837 134.607955,69.5039457 135.473722,69.5039457 C136.368766,69.5039457 137.079782,69.8845486 137.615136,70.641572 C137.991556,71.1769255 138.183949,71.8461174 138.192314,72.6491477 L133.474511,72.6491477 C133.487058,73.330887 133.683633,73.8871528 134.055871,74.3221275 C134.436474,74.7571023 134.900726,74.9745896 135.452809,74.9745896 C135.720486,74.9745896 135.979798,74.9244003 136.230745,74.819839 C136.481692,74.7152778 136.699179,74.5772569 136.874842,74.4057765 C137.050505,74.2342961 137.242898,73.9624369 137.447838,73.5776515 L137.447838,73.5776515 Z M137.456203,71.9966856 C137.364189,71.590988 137.234533,71.2689394 137.063052,71.0305398 C136.88739,70.7879577 136.661537,70.595565 136.377131,70.4449968 C136.092724,70.2986111 135.79577,70.223327 135.486269,70.223327 C134.967645,70.223327 134.524306,70.4073548 134.15625,70.7795928 C133.884391,71.051452 133.679451,71.4571496 133.54143,71.9966856 L137.456203,71.9966856 L137.456203,71.9966856 Z M139.438684,69.6503314 L140.107876,69.6503314 L140.107876,70.7294034 C140.37137,70.3195234 140.676689,70.0142045 141.023832,69.8092645 C141.366793,69.6043245 141.751578,69.5039457 142.178188,69.5039457 C142.918482,69.5039457 143.554214,69.8050821 144.081203,70.4073548 C144.608191,71.0054451 144.871686,71.7290088 144.871686,72.5696812 C144.871686,73.4354482 144.612374,74.1673769 144.089568,74.7696496 C143.566761,75.3719223 142.935211,75.6730587 142.194918,75.6730587 C141.780855,75.6730587 141.400253,75.5726799 141.053109,75.3802872 C140.701783,75.1837121 140.3881,74.8951231 140.107876,74.5103378 L140.107876,77.676452 L139.438684,77.676452 L139.438684,69.6503314 L139.438684,69.6503314 Z M142.127999,70.2358744 C141.546638,70.2358744 141.061474,70.4617266 140.664141,70.9176136 C140.266809,71.3735006 140.066051,71.9423138 140.066051,72.6198706 C140.066051,73.0632102 140.153883,73.4647254 140.333728,73.8160511 C140.509391,74.1715593 140.76452,74.4517835 141.090751,74.6609059 C141.425347,74.8700284 141.772491,74.9745896 142.136364,74.9745896 C142.496054,74.9745896 142.839015,74.8700284 143.152699,74.6567235 C143.470565,74.4517835 143.725694,74.1548295 143.913905,73.7784091 C144.102115,73.4019886 144.194129,73.0088384 144.194129,72.5989583 C144.194129,72.1807134 144.102115,71.7875631 143.913905,71.4111427 C143.729877,71.0389047 143.47893,70.7503157 143.161064,70.5453756 C142.84738,70.3404356 142.500237,70.2358744 142.127999,70.2358744 L142.127999,70.2358744 Z M149.848801,72.6951547 L146.799795,72.6951547 L146.799795,75.526673 L146.130603,75.526673 L146.130603,69.6503314 L146.799795,69.6503314 L146.799795,71.9841383 L149.848801,71.9841383 L149.848801,69.6503314 L150.51381,69.6503314 L150.51381,75.526673 L149.848801,75.526673 L149.848801,72.6951547 L149.848801,72.6951547 Z M152.676136,71.9757734 L153.316051,71.9757734 C153.822128,71.9757734 154.223643,72.0175979 154.512232,72.1096117 C154.796638,72.1974432 155.047585,72.3982008 155.256708,72.707702 C155.461648,73.0130208 155.570391,73.368529 155.570391,73.7700442 C155.570391,74.2510259 155.415641,74.6650884 155.114504,75.0122317 C154.817551,75.3551926 154.361664,75.526673 153.746843,75.526673 L152.011127,75.526673 L152.011127,69.6503314 L152.676136,69.6503314 L152.676136,71.9757734 L152.676136,71.9757734 Z M152.697049,72.67006 L152.697049,74.8867582 L153.474984,74.8867582 C154.386758,74.8867582 154.842645,74.5270676 154.842645,73.8076862 C154.842645,73.6027462 154.792456,73.4019886 154.692077,73.2054135 C154.595881,73.0088384 154.453677,72.8708176 154.265467,72.791351 C154.077257,72.7118845 153.746843,72.67006 153.270044,72.67006 L152.697049,72.67006 L152.697049,72.67006 Z M156.503078,69.6503314 L157.17227,69.6503314 L157.17227,75.526673 L156.503078,75.526673 L156.503078,69.6503314 L156.503078,69.6503314 Z M163.010969,73.5776515 L163.5756,73.9164299 C163.38739,74.3221275 163.174085,74.652541 162.931503,74.903488 C162.684738,75.154435 162.412879,75.3468277 162.10756,75.4764836 C161.802241,75.6061395 161.45928,75.6730587 161.074495,75.6730587 C160.217093,75.6730587 159.552083,75.359375 159.071102,74.7320076 C158.59012,74.1046402 158.347538,73.3936237 158.347538,72.6031408 C158.347538,71.8628472 158.552478,71.1978378 158.962358,70.6164773 C159.476799,69.8761837 160.171086,69.5039457 161.036853,69.5039457 C161.927715,69.5039457 162.642914,69.8845486 163.174085,70.641572 C163.554687,71.1769255 163.74708,71.8461174 163.751263,72.6491477 L159.037642,72.6491477 C159.050189,73.330887 159.242582,73.8871528 159.619003,74.3221275 C159.995423,74.7571023 160.459675,74.9745896 161.011758,74.9745896 C161.279435,74.9745896 161.538747,74.9244003 161.793876,74.819839 C162.044823,74.7152778 162.258128,74.5772569 162.437973,74.4057765 C162.613636,74.2342961 162.806029,73.9624369 163.010969,73.5776515 L163.010969,73.5776515 Z M163.015152,71.9966856 C162.92732,71.590988 162.793482,71.2689394 162.622001,71.0305398 C162.450521,70.7879577 162.220486,70.595565 161.940262,70.4449968 C161.655855,70.2986111 161.354719,70.223327 161.045218,70.223327 C160.530777,70.223327 160.087437,70.4073548 159.715199,70.7795928 C159.44334,71.051452 159.242582,71.4571496 159.104561,71.9966856 L163.015152,71.9966856 L163.015152,71.9966856 Z M172.781171,70.8716067 L172.25,71.2438447 C171.785748,70.557923 171.158381,70.2149621 170.35535,70.2149621 C169.719618,70.2149621 169.188447,70.4449968 168.76602,70.9050663 C168.343592,71.3609533 168.13447,71.9214015 168.13447,72.5780461 C168.13447,73.0046559 168.230666,73.4061711 168.423059,73.7825915 C168.619634,74.159012 168.883128,74.4517835 169.221907,74.6609059 C169.560685,74.8700284 169.941288,74.9745896 170.363715,74.9745896 C171.133286,74.9745896 171.760653,74.6316288 172.25,73.9457071 L172.781171,74.3388573 C172.530224,74.7612847 172.195628,75.0875158 171.773201,75.321733 C171.350773,75.5559501 170.869792,75.6730587 170.334438,75.6730587 C169.502131,75.6730587 168.816209,75.3761048 168.272491,74.7863794 C167.72459,74.196654 167.45273,73.4814552 167.45273,72.6366004 C167.45273,72.0677872 167.582386,71.5407986 167.837516,71.0556345 C168.092645,70.5662879 168.443971,70.185685 168.887311,69.9138258 C169.334833,69.6419665 169.832544,69.5039457 170.384628,69.5039457 C170.731771,69.5039457 171.066367,69.5625 171.388415,69.683791 C171.710464,69.8008996 171.982323,69.9556503 172.208176,70.1438605 C172.434028,70.3362532 172.622238,70.5788352 172.781171,70.8716067 L172.781171,70.8716067 Z M174.738557,69.6503314 L174.738557,74.0042614 L178.578046,69.6503314 L178.628235,69.6503314 L178.628235,75.526673 L177.959044,75.526673 L177.959044,71.2062027 L174.148832,75.526673 L174.069366,75.526673 L174.069366,69.6503314 L174.738557,69.6503314 L174.738557,69.6503314 Z M185.194681,70.8716067 L184.66351,71.2438447 C184.199258,70.557923 183.571891,70.2149621 182.76886,70.2149621 C182.133128,70.2149621 181.601957,70.4449968 181.17953,70.9050663 C180.757102,71.3609533 180.54798,71.9214015 180.54798,72.5780461 C180.54798,73.0046559 180.644176,73.4061711 180.836569,73.7825915 C181.033144,74.159012 181.296638,74.4517835 181.635417,74.6609059 C181.974195,74.8700284 182.354798,74.9745896 182.777225,74.9745896 C183.546796,74.9745896 184.174164,74.6316288 184.66351,73.9457071 L185.194681,74.3388573 C184.943734,74.7612847 184.609138,75.0875158 184.186711,75.321733 C183.764283,75.5559501 183.283302,75.6730587 182.747948,75.6730587 C181.915641,75.6730587 181.229719,75.3761048 180.686001,74.7863794 C180.142282,74.196654 179.870423,73.4814552 179.870423,72.6366004 C179.870423,72.0677872 179.995896,71.5407986 180.251026,71.0556345 C180.506155,70.5662879 180.857481,70.185685 181.300821,69.9138258 C181.748343,69.6419665 182.246054,69.5039457 182.798138,69.5039457 C183.145281,69.5039457 183.479877,69.5625 183.801926,69.683791 C184.123974,69.8008996 184.395833,69.9556503 184.621686,70.1438605 C184.847538,70.3362532 185.035748,70.5788352 185.194681,70.8716067 L185.194681,70.8716067 Z M185.901515,69.6503314 L189.331124,69.6503314 L189.331124,70.3027936 L187.946733,70.3027936 L187.946733,75.526673 L187.277541,75.526673 L187.277541,70.3027936 L185.901515,70.3027936 L185.901515,69.6503314 L185.901515,69.6503314 Z M194.651199,73.5776515 L195.21583,73.9164299 C195.031802,74.3221275 194.814315,74.652541 194.571733,74.903488 C194.329151,75.154435 194.053109,75.3468277 193.74779,75.4764836 C193.442472,75.6061395 193.099511,75.6730587 192.714725,75.6730587 C191.861506,75.6730587 191.192314,75.359375 190.711332,74.7320076 C190.23035,74.1046402 189.987768,73.3936237 189.987768,72.6031408 C189.987768,71.8628472 190.192708,71.1978378 190.602588,70.6164773 C191.11703,69.8761837 191.811316,69.5039457 192.677083,69.5039457 C193.567945,69.5039457 194.283144,69.8845486 194.814315,70.641572 C195.194918,71.1769255 195.387311,71.8461174 195.395676,72.6491477 L190.677872,72.6491477 C190.69042,73.330887 190.886995,73.8871528 191.259233,74.3221275 C191.635653,74.7571023 192.104088,74.9745896 192.651989,74.9745896 C192.919665,74.9745896 193.18316,74.9244003 193.434107,74.819839 C193.685054,74.7152778 193.902541,74.5772569 194.078204,74.4057765 C194.253867,74.2342961 194.446259,73.9624369 194.651199,73.5776515 L194.651199,73.5776515 Z M194.655382,71.9966856 C194.567551,71.590988 194.437895,71.2689394 194.262232,71.0305398 C194.090751,70.7879577 193.860717,70.595565 193.580492,70.4449968 C193.296086,70.2986111 192.999132,70.223327 192.685448,70.223327 C192.171007,70.223327 191.727667,70.4073548 191.359612,70.7795928 C191.087753,71.051452 190.882812,71.4571496 190.744792,71.9966856 L194.655382,71.9966856 L194.655382,71.9966856 Z M202.313447,69.6503314 L202.50584,69.6503314 L204.270833,75.526673 L203.568182,75.526673 L202.275805,71.2103851 L200.264047,75.526673 L200.142756,75.526673 L198.130997,71.1894729 L196.838621,75.526673 L196.135969,75.526673 L197.917693,69.6503314 L198.10172,69.6503314 L200.209675,74.2468434 L202.313447,69.6503314 L202.313447,69.6503314 Z M205.931266,71.9757734 L206.571181,71.9757734 C207.081439,71.9757734 207.478772,72.0175979 207.767361,72.1096117 C208.05595,72.1974432 208.302715,72.3982008 208.511837,72.707702 C208.72096,73.0130208 208.825521,73.368529 208.825521,73.7700442 C208.825521,74.2510259 208.674953,74.6650884 208.373816,75.0122317 C208.07268,75.3551926 207.616793,75.526673 207.006155,75.526673 L205.266256,75.526673 L205.266256,69.6503314 L205.931266,69.6503314 L205.931266,71.9757734 L205.931266,71.9757734 Z M205.95636,72.67006 L205.95636,74.8867582 L206.730114,74.8867582 C207.641888,74.8867582 208.097775,74.5270676 208.097775,73.8076862 C208.097775,73.6027462 208.047585,73.4019886 207.951389,73.2054135 C207.855193,73.0088384 207.708807,72.8708176 207.524779,72.791351 C207.336569,72.7118845 207.001973,72.67006 206.529356,72.67006 L205.95636,72.67006 L205.95636,72.67006 Z M209.758207,69.6503314 L210.427399,69.6503314 L210.427399,75.526673 L209.758207,75.526673 L209.758207,69.6503314 L209.758207,69.6503314 Z" id="Shape" fill="#2B2A29"></path>
            </g>
        </g>
    </g>
</svg>